<svg enable-background="new 0 0 831.6 680.2" version="1.1" viewBox="0 0 831.6 680.2" xml:space="preserve" xmlns="http://www.w3.org/2000/svg">
<style type="text/css">
	.st0{fill:#EDEEF2;}
	.st1{opacity:0.41;fill:url(#SVGID_1_);}
	.st2{fill:none;stroke:#000000;stroke-miterlimit:10;}
	.st3{fill:#C7CCD3;}
	.st4{opacity:0.1;}
	.st5{fill:none;stroke:#000000;stroke-linecap:round;stroke-miterlimit:10;stroke-dasharray:9.9678,9.9678;}
	.st6{fill:#52BA98;}
	.st7{opacity:0.5;}
	.st8{fill:none;stroke:#61DBB3;stroke-linecap:round;stroke-miterlimit:10;}
	.st9{fill:none;stroke:#000000;stroke-linecap:round;stroke-miterlimit:10;}
	.st10{fill:#F75312;}
	.st11{fill:#F7AA04;}
	.st12{opacity:0.2;clip-path:url(#SVGID_3_);}
	.st13{fill:#FFFFFF;}
	.st14{fill:#FFFFFF;stroke:#000000;stroke-linejoin:round;stroke-miterlimit:10;}
	.st15{fill:#81B0FF;}
	.st16{fill:#4689FF;}
	.st17{opacity:5.000000e-002;}
	.st18{fill:none;}
	.st19{fill:#4966F7;}
	.st20{fill:none;stroke:#000000;stroke-linejoin:round;stroke-miterlimit:10;}
	.st21{fill:#F7AA04;stroke:#000000;stroke-linejoin:round;stroke-miterlimit:10;}
	.st22{opacity:0.2;}
	.st23{fill:#F2F3F7;}
	.st24{fill:#FFE7B3;}
	.st25{opacity:0.5;fill:#F7AA04;}
	.st26{fill:#A1A8B2;}
	.st27{opacity:0.52;}
	.st28{fill:url(#SVGID_4_);}
</style>

















<g transform="matrix(-3.4802 0 0 3.4802 -2644.8 274.16)"><g transform="translate(-6.8837 2.8304)"><g transform="matrix(-.93645 -.35081 -.35081 .93645 -1590 -288.05)"><path d="m-825.54 30.485c-1.2273 0.7176-2.6565 1.0856-4.0778 1.0499-1.4213-0.03568-2.8302-0.47491-4.0199-1.2532-1.1178-0.7312-2.0342-1.7509-2.7123-2.9017-0.67807-1.1508-1.1226-2.4306-1.3836-3.7405-0.57411-2.8812-0.25596-5.9235 0.83321-8.652 0.80602-2.0192 2.0114-3.849 3.1596-5.6951 1.1482-1.8462 2.2586-3.7506 2.8431-5.8446 0.91228-3.2684 0.4803-6.751-0.1297-10.089-0.32944-1.8028-0.70947-3.6007-0.8711-5.4262s-0.0989-3.6944 0.4425-5.4452c0.94212-3.0467 3.2298-5.4676 5.5324-7.674 1.045-1.0014 2.1109-1.9862 3.0515-3.0862 0.94059-1.1001 1.7587-2.3264 2.236-3.6928 0.5742-1.6438 0.63368-3.4332 0.41162-5.1602-0.22206-1.727-0.7163-3.4061-1.2292-5.0701-0.51513-1.6712-1.053-3.3445-1.3126-5.0739s-0.22939-3.5358 0.37146-5.1781c0.37391-1.022 0.96214-1.96 1.6816-2.7764 1.3589-1.542 3.1516-2.6306 4.9623-3.6029 1.8108-0.97236 3.6819-1.861 5.3211-3.1009 1.3383-1.0123 2.5056-2.2472 3.9101-3.1655 0.70221-0.45917 1.4651-0.83742 2.2796-1.0388s1.684-0.2202 2.4866 0.02441c0.65112 0.19845 1.2666 0.58718 1.6166 1.171 0.18632 0.31076 0.29167 0.66647 0.32973 1.0268 0.0381 0.36033 0.0103 0.7256-0.057 1.0816-0.13448 0.71208-0.42335 1.3839-0.66608 2.0667-0.92731 2.6085-1.1866 5.3979-1.5171 8.1465s-0.75456 5.5395-1.9717 8.0261c-1.068 2.1819-2.6972 4.0284-4.2401 5.9048-1.4101 1.7149-2.7977 3.547-3.3262 5.7034-0.38738 1.5808-0.28655 3.2347-0.18959 4.8594 0.097 1.6247 0.18472 3.2813-0.22712 4.8558-0.37261 1.4246-1.1389 2.7157-1.9987 3.9111-0.85985 1.1954-1.8217 2.3161-2.6523 3.532-1.6664 2.4396-2.8018 5.3805-2.4715 8.3164 0.29125 2.5886 1.6705 4.9045 2.6352 7.3242 1.7973 4.5084 2.1586 9.6072 0.8338 14.276-1.0243 3.6099-3.0088 6.9065-3.8703 10.559-0.31706 1.3441-0.49645 2.7696-1.262 3.919-0.38277 0.57468-0.91584 1.0648-1.5609 1.3112-0.32252 0.12319-0.67007 0.18397-1.0148 0.1652-0.34473-0.01877-0.68625-0.1181-0.98111-0.29769-0.17813-0.1085-0.33873-0.2457-0.47372-0.40469" fill="#5fd3bc"/><path d="m-805.94-60.878c-10.897 20.105-18.29 42.104-21.745 64.71-2.0781 13.595-2.7409 27.406-1.974 41.138" fill="none" stroke="#008080" stroke-width=".58048"/></g><g fill="#5fd3bc"><path d="m-846.26 38.699c3.7762-0.92936 7.1661-3.3427 9.2802-6.6067 0.53319-0.82319 0.98996-1.7026 1.2748-2.6411 0.28485-0.93851 0.39378-1.9397 0.2328-2.9072-0.26934-1.6187-1.2542-3.0103-1.9824-4.4809-0.89272-1.8028-1.4196-3.8498-1.098-5.8356 0.33178-2.0487 1.5175-3.8381 2.5492-5.6389 0.62446-1.09 1.2036-2.2126 1.6052-3.4029 0.40161-1.1903 0.62237-2.4546 0.51627-3.7064-0.10565-1.2464-0.52925-2.4415-0.96934-3.6124-0.44009-1.1709-0.90353-2.3456-1.095-3.5818-0.30611-1.9763 0.0985-3.9833 0.40669-5.9593 0.30815-1.976 0.51181-4.0512-0.16849-5.9318-0.31948-0.88316-0.82189-1.686-1.2866-2.5022-0.4647-0.81614-0.90048-1.6683-1.0662-2.5927-0.18644-1.0399-0.0189-2.1168 0.30036-3.1239 0.31928-1.0071 0.78658-1.9595 1.2177-2.9241 0.93437-2.0907 1.7126-4.2928 1.8354-6.5795 0.15519-2.8909-0.76604-5.7863-2.341-8.2154-0.62464-0.96341-1.3553-1.8658-2.2324-2.6069-0.87706-0.74101-1.9057-1.3177-3.0214-1.5893-1.4461-0.35196-2.9907-0.17678-4.3864 0.34017-1.3956 0.51696-2.6516 1.3624-3.7737 2.3402-1.6629 1.4491-3.1005 3.2949-3.513 5.4617-0.30378 1.5957-0.0274 3.2624 0.55771 4.7778 0.58507 1.5154 1.4674 2.8972 2.4037 4.2247 1.0454 1.4822 2.1673 2.9143 3.0996 4.4701 0.93229 1.5558 1.6775 3.2584 1.8851 5.0602 0.26857 2.3306-0.37504 4.6724-1.2264 6.8585-1.1557 2.9677-2.7237 5.8513-3.0308 9.0213-0.26932 2.7801 0.47993 5.6146 1.9022 8.0185 0.43913 0.74222 0.94096 1.4475 1.3462 2.2087s0.71499 1.5947 0.72877 2.457c0.019 1.1911-0.5226 2.3156-1.1212 3.3455-1.3051 2.2455-2.961 4.3379-3.7088 6.8252-0.66212 2.2024-0.56069 4.5606-0.27729 6.8429 0.44698 3.5996 1.3734 7.2352 3.4668 10.197 0.50278 0.7114 1.069 1.3779 1.6897 1.9891z"/><path d="m-846.72 51.937c5.6815-19.897 8.2203-40.688 7.4937-61.367-0.42876-12.202-1.9885-24.365-4.6528-36.281" stroke="#008080" stroke-width=".58048"/></g><g><path transform="matrix(-1.0638 0 0 1.0638 770.14 -7.7276)" d="m1600.9-32.752c-3.8401-1.0185-9.4247-2.9086-11.024-4.0813-1.5988-1.1727-0.2275-7.8209-3.1176-11.344-2.8901-3.5227-9.2404-6.5788-13.922-6.9825-4.6819-0.40367-8.7765 0.79441-12.083 3.6434-3.3066 2.849-5.2707 8.6489-5.7944 12.268-0.5238 3.6192 0.2067 5.3213 1.3965 7.3544 1.1897 2.0331 5.0866 4.2802 5.0866 4.2802 0.9238 1.6312 1.2143 2.2248 1.9144 4.7023 0.8078 0.29624 1.7466 0.20766 2.3552-0.70268 0 0 0.8355 1.405 1.2425 1.503 0.407 0.09798 1.0159-0.43892 1.0159-0.43892s0.4481 1.0587 0.9407 1.1743c0.4927 0.11557 1.3892-0.64457 1.3892-0.64457 1.2352 0.62934 2.1384 1.7091 3.9454 1.5625 2.154-0.81087 2.8245-2.8342 4.9172-3.3784 2.5255 1.0187 5.3839 1.7045 7.0679 3.5646z" fill="#ff9980"/><path transform="matrix(-1.0638 0 0 1.0638 770.14 -7.7276)" d="m1563.2-62.942 40.824 14.301c-4.2026 14.333-42.129 24.889-63.863 24.245z" fill="#916f8a"/><path transform="matrix(-1.0638 0 0 1.0638 770.14 -7.7276)" d="m1588.3 14.608-12.271 3.8138-15.559-1.9698-4.8264 1.653-3.3986 4.5157 2.0364 1.6475 7.279-2.7852 27.416 1.4399z" fill="#ff9980"/></g><path transform="matrix(-1.0638 0 0 1.0638 770.14 -7.7276)" d="m1574.5 49.746c9.5265-2.6084 19.483-3.6379 29.342-3.0337 3.1693 0.19422 6.3447 0.55908 9.4 1.4238 3.0552 0.86475 5.9985 2.2474 8.4096 4.3135 4.3222 3.7038 6.6447 9.4997 6.4922 15.19-0.148 5.5216-2.4325 10.736-4.7577 15.747-3.0555 6.5841-6.4597 13.363-12.287 17.691-3.0991 2.3018-6.7479 3.788-10.497 4.7068-3.7494 0.91878-7.6115 1.2883-11.465 1.5123-10.217 0.59366-20.463 0.18231-30.696 0.34695-7.8295 0.12597-15.798 0.57405-23.362-1.4518-7.1518-1.9154-13.535-5.9381-20.39-8.7358-6.907-2.819-14.373-4.4298-20.714-8.3598-1.8814-1.166-3.691-2.5805-4.7763-4.5096-0.9285-1.6503-1.265-3.5734-1.3387-5.4656-0.074-1.8921 0.1002-3.7847 0.1199-5.6782 0.024-2.3007-0.1797-4.5989-0.1709-6.8998 0.01-2.3009 0.2393-4.637 1.0925-6.7738 0.8966-2.2456 2.4542-4.1874 4.2861-5.7656 1.8318-1.5782 3.936-2.8111 6.098-3.8937 8.4159-4.2141 17.768-6.2253 27.106-7.4068 11.114-1.4063 22.491-1.6807 33.436 0.70701 2.5589 0.55824 5.0937 1.2471 7.5446 2.1705 2.4509 0.92338 4.8657 2.0796 6.7964 3.8494 0.057 0.05188 0.1127 0.10428 0.1683 0.15722 0.055 0.05244 0.1097 0.1054 0.1638 0.15885z" fill="#93a7ac"/><g><path transform="matrix(-1.0638 0 0 1.0638 770.14 -7.7276)" d="m1470.1 31.018c-0.7875 4.8068 1.287 7.7548 2.5788 11.211l11.224 11.461 44.222-8.9388 31.6-8.9316 2.4357-6.5497-25.623 1.7037c-7.1804 2.4515-12.374 5.3146-22.037 7.2516l-22.388 4.3387-9.8729-4.5534c-3.4339-2.3186-6.9414-3.63-10.234-7.8834z" fill="#ff9980"/><path transform="matrix(-1.0638 0 0 1.0638 770.14 -7.7276)" d="m1471.1 30.734c-0.01 1.0769 0.1678 2.0861 0.6342 2.9874 0.9537-1.4566 2.117-1.477 3.2809-1.4933 2.2767 1.4653 4.656 3.1168 7.2616 5.1789-2.5151 1.8086-4.772 3.7062-4.3384 6.5311l8.1981 9.6718-2.3536 0.60538-12.112-12.889c-1.065-2.3217-1.6-4.75-2.2069-7.1638 0.1029-1.1652 0.1216-2.2425 0.3445-3.5329 0.7671-0.65274 0.9493-0.11011 1.292 0.10427z" fill="#7b86c9"/><path transform="matrix(-1.0638 0 0 1.0638 770.14 -7.7276)" d="m1573.7 52.583-18.214-6.2155-14.103 1.8036s-9.791 4.2416-15.608 5.3106c-5.8174 1.0691-13.667-0.22003-18.99 0.67511-5.3227 0.89515-12.794 3.9254-12.794 3.9254l-7.9191 5.9826c-3.3326 0.71077-6.4921-0.77692-9.5266-3.8549l-13.965-10.687c-2.9494-4.6455-2.2231-14.012-0.4186-13.516 6.3785 3.9502 12.481 6.4565 18.478 8.4048 4.3977 2.2026 8.3312 1.0406 12.385 0.74886 12.793-2.1668 25.355-4.5179 36.303-8.1544 5.0444-3.0327 6.5342-3.7816 9.0792-5.1492l7.7966-1.4767 36.931-0.18708z" fill="#febaad"/><path transform="matrix(-1.0638 0 0 1.0638 770.14 -7.7276)" d="m1614.7 50.513-2.7445 4.4592c-3.421 2.8763-17.922 2.7872-32.041-0.50308-10.473-1.6024-22.18-0.54487-33.371-0.60108-0.7621-7.6874-4.3522-15.301-1.8931-23.072l-0.4436-4.6079 44.53 1.1299 19.125 11.136z" fill="#008080"/><path transform="matrix(-1.0638 0 0 1.0638 770.14 -7.7276)" d="m1572.2 27.362-2.1997 3.1562-35.06 0.64842-3.5103-2.1257-18.66-29.47 7.6581-4.2817 16.553 26.063 34.79 0.76938z" fill="#7b86c9"/><path transform="matrix(-1.0638 0 0 1.0638 770.14 -7.7276)" d="m1602.2-33.373s-6.9295 1.2697-9.9947 3.8275c-3.0653 2.5579-6.8777 11.327-6.8777 11.327l0.8423 3.9541c-4.7476 16.622-2.5429 29.749-0.8024 43.347 4.4923 0.86454 4.8932 3.9146 5.9637 6.5538 1.4835 3.6576 7.1574 3.6075 9.3441 7.0288 3.1721 4.9629 8.2599 8.6453 14.071 11.298 3.209-4.3673 7.4169-11.947 9.2222-17.896 0.6807-15.221 2.0804-32.478-2.4465-46.407-2.6137-6.6507-12.526-17.268-19.322-23.034z" fill="#28a745"/><path transform="matrix(-1.0638 0 0 1.0638 770.14 -7.7276)" d="m1545.1 22.325-2.814 5.3765 18.672-0.072-0.8038-4.6084z" fill="#44475a"/></g><path transform="matrix(-1.0638 0 0 1.0638 770.14 -7.7276)" d="m1609.1-11.545c3.7261 5.3788 10.134 36.137 7.4097 40.414-12.489 10.898-30.104 1.2221-45.893-0.29591 9.9927-5.6062 44.951-1.7543 27.836-17.63l-8.3225-1.7903c0.5217-5.5293 1.115-8.8539 1.5691-13.803-1.6683-3.9253 0.734-14.883 2.2689-13.385 4.0356 0.31584 8.7247-0.53652 11.584 1.8831z" fill="#282a36" fill-opacity=".33698"/><g><path transform="matrix(-1.0638 0 0 1.0638 770.14 -7.7276)" d="m1611.7 6.679c2.1375 4.4355 2.4805 10.339 3.7986 15.404 0.3324 1.407-0.3066 4.6062-2.6683 6.519-1.0056 0.78187-12.453 2.3272-19.764 2.3566-3.5129 0.0429-12.116-3.1764-18.907-3.5544l-3.5822 1.1397-10.09-2.4871-5.8287 1.6854-3.6898-1.8465 5.1037-6.5568c3.0959-0.5245 6.179-1.0356 8.7558-1.0195 3.0114 0.52056 6.8744 1.612 10.483 2.533 9.1475 0.54426 15.75-0.58551 24.609-3.0094-1.4978-3.8596-2.8483-8.8568-3.9038-13.457z" fill="#febaad"/><path transform="matrix(-1.0638 0 0 1.0638 770.14 -7.7276)" d="m1608.2-13.16c3.726 5.3788 5.1217 13.228 5.7459 21.117-8.9123-0.684-16.193 0.53269-23.682 0.90688 0.5218-5.5293 0.2676-9.6797 0.7217-14.628-1.6683-3.9254 0.734-14.883 2.2688-13.385 4.0357 0.31581 8.7248-0.53654 11.584 1.8831z" fill="#28a745"/><path transform="matrix(-1.0638 0 0 1.0638 770.14 -7.7276)" d="m1535.6 20.797-4.1055 6.0074-15.61-24.97 5.3096-3.9098z" fill="#44475a"/><path transform="matrix(-1.0638 0 0 1.0638 770.14 -7.7276)" d="m1466.7 38.551 8.7295 3.9319c-3.8234 3.6704-2.9464 7.8579-2.9273 11.951l10.749 7.7302c1.3534 0.86767 2.2937 1.3556 4.1668 1.107-0.3868 1.0346-0.9686 1.6793-3.7137 2.341-2.3657 0.45701-14.556-7.45-21.933-14.28l-4.8362-7.0456c-0.9581-2.6095-2.6574-8.0308 3.0614-9.016l1.4233 1.0625c-1.5966 6.3963-0.5582 10.313 1.402 13.362 1.0172-3.8038 0.01-8.2647 3.8781-11.144z" fill="#7b86c9"/><path d="m-845.07 100.8c-0.80923-0.31613-1.5798-0.73101-2.2892-1.2325-1.4845-1.0494-2.6873-2.471-3.5849-4.0519-0.27134-0.47791-0.51704-0.97371-0.67779-1.4992s-0.23467-1.0836-0.15893-1.6279c0.0608-0.43683 0.22012-0.86343 0.48614-1.2152 0.26601-0.35178 0.64154-0.62541 1.067-0.74178 0.40382-0.11046 0.83682-0.07744 1.2405 0.03355 0.40368 0.11099 0.78242 0.29702 1.1521 0.49351 1.6536 0.87897 3.1934 2.0009 4.4218 3.4144 0.10379 0.11943 0.20832 0.24339 0.34602 0.32134 0.0688 0.03897 0.14556 0.06558 0.22453 0.0704 0.079 0.0048 0.16024-0.01302 0.22631-0.05653 0.0834-0.0549 0.13769-0.14788 0.15678-0.24585 0.0191-0.09797 5e-3 -0.20039-0.0276-0.2947-0.0654-0.18862-0.20064-0.3431-0.30928-0.51058-0.33566-0.51742-0.4157-1.1743-0.30181-1.7804 0.10847-0.57734 0.38242-1.1162 0.74411-1.579 0.36169-0.4629 0.80944-0.85307 1.2876-1.1943 0.52057-0.37148 1.0852-0.69023 1.6965-0.87801s1.2729-0.24001 1.893-0.08334c0.61848 0.15628 1.1717 0.51279 1.6439 0.94171 0.70307 0.63865 1.2608 1.4822 1.3816 2.4243 0.0578 0.45126 7e-3 0.93484-0.24756 1.3121-0.16573 0.24584-0.40712 0.4317-0.66249 0.58233-0.25536 0.15064-0.52781 0.27004-0.78838 0.41148s-0.51295 0.30825-0.70397 0.535c-0.19101 0.22675-0.31615 0.52079-0.29173 0.81627 0.0141 0.17027 0.0764 0.33345 0.15656 0.48432 0.30448 0.57295 0.86817 0.98131 1.4837 1.1865 0.61551 0.20524 1.2805 0.22231 1.9253 0.14999 1.2896-0.14464 2.5366-0.63654 3.8342-0.63392 1.305 0.0026 2.6049 0.53501 3.5228 1.4627 0.53092 0.53664 0.94305 1.2259 1.004 1.9783 0.0408 0.50369-0.0786 1.0143-0.30665 1.4653-0.22803 0.45096-0.56176 0.84389-0.94687 1.1711-0.67689 0.57509-1.5033 0.94661-2.3438 1.2339-2.168 0.7411-4.4812 0.96371-6.7722 0.98868-2.1535 0.0235-4.33-0.12689-6.3919-0.74861-0.52656-0.15877-1.0474-0.34941-1.5208-0.62928s-0.89997-0.65375-1.1844-1.1244c-0.24482-0.40507-0.37886-0.87635-0.38387-1.3496z" fill="#5fd3bc"/><path d="m-948.27 89.565c-0.73119-0.91804-1.2936-1.9566-1.9449-2.9329s-1.4168-1.9131-2.4304-2.5047c-0.67972-0.39674-1.468-0.62622-2.2538-0.58074-0.58745 0.03401-1.1616 0.22032-1.6749 0.50791-0.51337 0.28759-0.96735 0.6747-1.3594 1.1135-0.22512 0.25192-0.43214 0.52368-0.57793 0.82846-0.14578 0.30478-0.22833 0.64533-0.19687 0.98171 0.0401 0.42869 0.25971 0.81982 0.51057 1.1697 0.52417 0.73116 1.2055 1.3486 1.6544 2.1283 0.22442 0.38983 0.38817 0.82143 0.42142 1.27 0.0333 0.44859-0.0718 0.91549-0.34047 1.2763-0.0572 0.07687-0.12142 0.14854-0.19127 0.21416-0.39273 0.36893-0.95263 0.52765-1.4909 0.50395-0.53832-0.02371-1.0577-0.21563-1.5315-0.47228-0.94758-0.51328-1.751-1.2904-2.7581-1.6741-0.43243-0.16477-0.89729-0.25239-1.3593-0.22651-0.46202 0.02588-0.92088 0.16809-1.3006 0.4326-0.42865 0.2986-0.74182 0.74043-0.96124 1.2145-0.25767 0.55671-0.39626 1.1707-0.38195 1.7839 0.0143 0.61328 0.18352 1.2249 0.50416 1.7479 0.54688 0.89197 1.4942 1.4743 2.4823 1.8184 1.6775 0.58428 3.5018 0.56295 5.2729 0.42672 1.4935-0.11488 3.0126-0.30506 4.4756 0.01633 0.56857 0.1249 1.129 0.33113 1.5911 0.68523 0.41964 0.32161 0.74303 0.75333 1.0126 1.2082 0.26952 0.45486 0.48995 0.93681 0.73999 1.4027 0.44404 0.82728 1.0059 1.6271 1.8068 2.1171 0.21192 0.12966 0.44213 0.23713 0.68793 0.27321 0.24581 0.0361 0.50966-5e-3 0.71126-0.15035 0.17853-0.12856 0.29625-0.32943 0.35495-0.54145s0.0625-0.43564 0.0468-0.65507c-0.0586-0.81593-0.37808-1.5875-0.56381-2.3842-0.0929-0.39833-0.15259-0.80774-0.12788-1.216 0.0247-0.40827 0.13743-0.81696 0.36682-1.1556 0.11443-0.16892 0.26216-0.32266 0.45003-0.40224 0.21471-0.09095 0.4631-0.07587 0.68437-0.0023 0.22126 0.0736 0.42002 0.20157 0.61127 0.33499 0.19124 0.13341 0.37885 0.27429 0.58746 0.3785 0.2086 0.1042 0.44298 0.17071 0.67458 0.14363 0.24784-0.02898 0.47634-0.16534 0.64188-0.35205 0.23693-0.26722 0.34819-0.62948 0.35991-0.98643 0.0117-0.35694-0.0692-0.711-0.17862-1.051-0.39133-1.2159-1.1425-2.2841-1.9671-3.2595-0.94463-1.1174-1.9983-2.1398-2.9277-3.2699-0.0438-0.05327-0.0873-0.10676-0.1303-0.16071z" fill="#5fd3bc"/></g></g></g></svg>
